<svg xmlns="http://www.w3.org/2000/svg" width="23" height="23"><path fill-rule="evenodd" fill="#fff" d="M12 22C6.477 22 2 17.522 2 12 2 6.477 6.477 2 12 2s10 4.477 10 10c0 5.522-4.477 10-10 10zm1-2.063a7.999 7.999 0 006.975-8.437A8.002 8.002 0 0012 4a8.002 8.002 0 00-6.167 13.103A7.995 7.995 0 0011 19.937V14H9v-2h2v-1.654c0-1.337.14-1.822.4-2.311A2.727 2.727 0 0112.536 6.9c.382-.205.857-.328 1.687-.381.329-.021.755.005 1.278.08v1.9H15c-.917 0-1.296.043-1.522.164a.726.726 0 00-.314.314c-.12.226-.164.45-.164 1.368V12h2.5l-.5 2h-2v5.938z"/></svg>