<svg xmlns="http://www.w3.org/2000/svg" width="23" height="23"><path fill-rule="evenodd" fill="#fff" d="M12 2c2.717 0 3.056.01 4.122.06 1.065.05 1.79.217 2.428.465.66.254 1.216.598 1.772 1.153a4.91 4.91 0 011.153 1.772c.247.637.415 1.363.465 2.427.047 1.067.06 1.406.06 4.123 0 2.717-.01 3.056-.06 4.122-.05 1.065-.218 1.79-.465 2.428a4.888 4.888 0 01-1.153 1.772c-.5.508-1.105.902-1.772 1.153-.637.247-1.363.415-2.428.465-1.066.047-1.405.06-4.122.06-2.717 0-3.056-.01-4.122-.06-1.065-.05-1.79-.218-2.428-.465a4.885 4.885 0 01-1.772-1.153 4.906 4.906 0 01-1.153-1.772c-.248-.637-.415-1.363-.465-2.428C2.013 15.056 2 14.717 2 12c0-2.717.01-3.056.06-4.123.05-1.065.217-1.79.465-2.427a4.88 4.88 0 011.153-1.772A4.9 4.9 0 015.45 2.525c.638-.248 1.362-.415 2.428-.465C8.944 2.013 9.283 2 12 2zm0 2c-2.474 0-2.878.007-4.03.058-.783.037-1.31.142-1.797.332a2.886 2.886 0 00-1.08.703 2.891 2.891 0 00-.704 1.08c-.19.49-.295 1.014-.331 1.798C4.006 9.075 4 9.46 4 12c0 2.474.007 2.878.058 4.029.037.783.142 1.31.33 1.797.171.435.37.748.703 1.08.337.336.65.537 1.08.703.494.19 1.02.297 1.8.332C9.075 19.994 9.46 20 12 20c2.474 0 2.878-.007 4.029-.059.782-.036 1.309-.141 1.797-.33.433-.17.748-.37 1.08-.702.337-.337.538-.65.704-1.08.19-.493.296-1.02.332-1.8.052-1.104.058-1.49.058-4.03 0-2.473-.007-2.877-.058-4.028-.037-.782-.142-1.31-.332-1.798a2.91 2.91 0 00-.703-1.08 2.882 2.882 0 00-1.08-.704c-.49-.19-1.016-.295-1.798-.33-1.104-.053-1.49-.06-4.03-.06zm6.5 2.75a1.25 1.25 0 11-2.501 0 1.25 1.25 0 012.5 0zM12 7a5 5 0 110 10.001A5 5 0 0112 7zm0 2a2.998 2.998 0 00-3 3 3 3 0 103-3z"/></svg>