<svg xmlns="http://www.w3.org/2000/svg" width="21" height="21"><path fill-rule="evenodd" fill="#000858" d="M7.446 9.682a10.558 10.558 0 003.952 3.952l.884-1.238a.999.999 0 011.294-.296 11.423 11.423 0 004.583 1.364 1 1 0 01.921.997v4.462a1 1 0 01-.898.995A15.51 15.51 0 0116.58 20c-8.56 0-15.5-6.94-15.5-15.5 0-.538.027-1.072.082-1.602A1 1 0 012.157 2h4.462a1 1 0 01.997.92A11.425 11.425 0 008.98 7.505a1 1 0 01-.296 1.294l-1.238.884zm-2.522-.657l1.9-1.357A13.38 13.38 0 015.727 4H3.09c-.006.166-.01.333-.01.5 0 7.456 6.044 13.5 13.5 13.5.167 0 .334-.003.5-.01v-2.637a13.423 13.423 0 01-3.668-1.097l-1.357 1.9a12.467 12.467 0 01-1.588-.75l-.058-.033a12.554 12.554 0 01-4.702-4.702l-.033-.058a12.472 12.472 0 01-.75-1.588z"/></svg>