<svg xmlns="http://www.w3.org/2000/svg" width="22" height="21"><path fill-rule="evenodd" fill="#c90608" d="M8.366 9.682a10.55 10.55 0 003.952 3.952l.884-1.238a1 1 0 011.294-.296 11.424 11.424 0 004.583 1.364.997.997 0 01.92.997v4.462a1 1 0 01-.897.995A15.51 15.51 0 0117.5 20C8.94 20 2 13.06 2 4.5c0-.538.027-1.072.082-1.602A1 1 0 013.077 2h4.462a1.001 1.001 0 01.997.92A11.423 11.423 0 009.9 7.505a1 1 0 01-.296 1.294l-1.238.884zm-2.522-.657l1.9-1.357A13.38 13.38 0 016.647 4H4.01c-.006.166-.009.333-.009.5C4 11.956 10.044 18 17.5 18c.167 0 .334-.003.5-.01v-2.637a13.37 13.37 0 01-3.668-1.098l-1.357 1.9a12.388 12.388 0 01-1.588-.75l-.058-.032a12.56 12.56 0 01-4.702-4.703l-.033-.057a12.445 12.445 0 01-.75-1.588z"/></svg>